<svg width="387" height="189" viewBox="0 0 387 189" fill="none" xmlns="http://www.w3.org/2000/svg">
<path d="M0.84375 5C0.84375 5 73.625 -12.5 125 22.5C125 22.5 133.562 88.125 167.812 88.125V57.5C167.812 57.5 176.375 75 193.5 75C210.625 75 219.188 57.5 219.188 57.5V88.125C253.438 88.125 262 22.5 262 22.5C313.375 -12.5 386.156 5 386.156 5C351.906 22.5 347.625 83.75 347.625 83.75C279.125 83.75 279.125 140.625 279.125 140.625C193.5 123.125 193.5 188.75 193.5 188.75C193.5 188.75 193.5 123.125 107.875 140.625C107.875 140.625 107.875 83.75 39.375 83.75C39.375 83.75 35.0938 22.5 0.84375 5Z" fill="#F9E852"/>
</svg>
