<svg width="200" height="200" viewBox="0 0 200 200" fill="none" xmlns="http://www.w3.org/2000/svg">
<path d="M149.125 29.6083C148.432 28.2237 147.367 27.0592 146.05 26.2453C144.733 25.4314 143.215 25.0002 141.667 25H58.3333C55.175 25 52.2917 26.7833 50.875 29.6083L17.5417 96.275C16.9623 97.4328 16.6607 98.7096 16.6607 100.004C16.6607 101.299 16.9623 102.576 17.5417 103.733L50.875 170.4C52.2917 173.217 55.175 175 58.3333 175H141.667C144.825 175 147.708 173.217 149.125 170.392L182.458 103.725C183.038 102.567 183.339 101.29 183.339 99.9958C183.339 98.7012 183.038 97.4244 182.458 96.2667L149.125 29.6083ZM161.517 91.6667H96.8167L71.8167 41.6667H136.517L161.517 91.6667ZM34.3167 100L58.3333 51.9667L82.35 100L58.3333 148.033L34.3167 100ZM136.517 158.333H71.8167L96.8167 108.333H161.517L136.517 158.333Z" fill="#FFD233"/>
</svg>
