<svg width="200" height="200" viewBox="0 0 200 200" fill="none" xmlns="http://www.w3.org/2000/svg">
<g clip-path="url(#clip0_12_13)">
<path d="M197 102.5C197 152.272 154.236 193 101 193C47.7645 193 5 152.272 5 102.5C5 52.7284 47.7645 12 101 12C154.236 12 197 52.7284 197 102.5Z" stroke="#FFD233" stroke-width="8"/>
<path d="M161.808 55.6583C170.392 64.7749 175 74.9999 175 91.5749C175 120.742 154.525 146.883 124.75 159.808L117.308 148.325C145.1 133.292 150.533 113.783 152.7 101.483C148.225 103.8 142.367 104.608 136.625 104.075C121.592 102.683 109.742 90.3416 109.742 74.9999C109.742 67.2644 112.815 59.8458 118.284 54.376C123.754 48.9062 131.173 45.8333 138.908 45.8333C147.85 45.8333 156.4 49.9166 161.808 55.6583ZM78.475 55.6583C87.0583 64.7749 91.6667 74.9999 91.6667 91.5749C91.6667 120.742 71.1917 146.883 41.4167 159.808L33.975 148.325C61.7667 133.292 67.2 113.783 69.3667 101.483C64.8917 103.8 59.0334 104.608 53.2917 104.075C38.2584 102.683 26.4167 90.3416 26.4167 74.9999C26.4167 67.2644 29.4896 59.8458 34.9594 54.376C40.4292 48.9062 47.8479 45.8333 55.5834 45.8333C64.525 45.8333 73.075 49.9166 78.4834 55.6583H78.475Z" fill="#FFD233"/>
</g>
<defs>
<clipPath id="clip0_12_13">
<rect width="200" height="200" fill="white"/>
</clipPath>
</defs>
</svg>
