<svg width="200" height="200" viewBox="0 0 200 200" fill="none" xmlns="http://www.w3.org/2000/svg">
<path d="M75 104.167H83.3333V87.5001H91.6667C94.0278 87.5001 96.0083 86.7001 97.6083 85.1001C99.2083 83.5001 100.006 81.5223 100 79.1668V70.8334C100 68.4723 99.2 66.4918 97.6 64.8918C96 63.2918 94.0222 62.4945 91.6667 62.5001H75V104.167ZM83.3333 79.1668V70.8334H91.6667V79.1668H83.3333ZM108.333 104.167H125C127.361 104.167 129.342 103.367 130.942 101.767C132.542 100.167 133.339 98.189 133.333 95.8334V70.8334C133.333 68.4723 132.533 66.4918 130.933 64.8918C129.333 63.2918 127.356 62.4945 125 62.5001H108.333V104.167ZM116.667 95.8334V70.8334H125V95.8334H116.667ZM141.667 104.167H150V87.5001H158.333V79.1668H150V70.8334H158.333V62.5001H141.667V104.167ZM66.6667 150C62.0833 150 58.1583 148.367 54.8917 145.1C51.625 141.833 49.9945 137.911 50 133.333V33.3334C50 28.7501 51.6333 24.8251 54.9 21.5584C58.1667 18.2918 62.0889 16.6612 66.6667 16.6668H166.667C171.25 16.6668 175.175 18.3001 178.442 21.5668C181.708 24.8334 183.339 28.7557 183.333 33.3334V133.333C183.333 137.917 181.7 141.842 178.433 145.108C175.167 148.375 171.244 150.006 166.667 150H66.6667ZM66.6667 133.333H166.667V33.3334H66.6667V133.333ZM33.3333 183.333C28.75 183.333 24.825 181.7 21.5583 178.433C18.2917 175.167 16.6611 171.245 16.6667 166.667V50.0001H33.3333V166.667H150V183.333H33.3333Z" fill="#FFD233"/>
</svg>
